<?xml version="1.0" encoding="UTF-8"?>
<svg id="Layer_4" data-name="Layer 4" xmlns="http://www.w3.org/2000/svg" version="1.1" viewBox="0 0 2076.92 2004.16">
  <defs>
    <style>
      .cls-1 {
        fill: #000;
        stroke-width: 0px;
      }

      .cls-2 {
        fill: none;
        stroke: #fe621d;
        stroke-miterlimit: 10;
        stroke-width: 10.5px;
      }
    </style>
  </defs>
  <rect class="cls-1" width="2076.92" height="2004.16"/>
  <path class="cls-2" d="M1386.96,1002.08c0,165.75-134.37,300.12-300.12,300.12s-300.12-134.37-300.12-300.12,134.37-300.12,300.12-300.12,300.12,134.37,300.12,300.12ZM1086.84,899.09c-57.18,0-103.54,46.36-103.54,103.54s46.36,103.54,103.54,103.54,103.54-46.36,103.54-103.54-46.36-103.54-103.54-103.54ZM1195.1,1002.63h191.86M1304.61,795.59l-137.74,137.74M1297.77,1215.53l-135.62-135.62M817.21,727.44c-73.51,72.27-114.95,171.15-114.95,274.23s42.67,204.78,118.07,277.26l266.51-277.26-269.63-274.23Z"/>
</svg>